# xmcd
#
# Track frame offsets:
#	182
#	15497
#	29540
#	47102
#	60250
#	75485
#	86700
#	102390
#	113670
#	126355
#
# Disc length: 1935 seconds
#
# Revision: 1
# Processed by: cddbd v1.5.2PL0 Copyright (c) Steve Scherf et al.
# Submitted via: EZCDAudioConverter 6.0.2.1
#
DISCID=76078d0a
DTITLE=Sammy Kershaw - Don't Go Near The Water
DYEAR=1991
DGENRE=Country
TTITLE0=Real Old-Fashioned Broken Heart
TTITLE1=Don't Go Near The Water
TTITLE2=I Buy Her Roses
TTITLE3=Cadillac Style
TTITLE4=Kickin' In
TTITLE5=What Am I Worth
TTITLE6=Yard Sale
TTITLE7=Anywhere But Here
TTITLE8=Every Third Monday
TTITLE9=Harbor For A Lonely Heart
EXTD=
EXTT0=
EXTT1=
EXTT2=
EXTT3=
EXTT4=
EXTT5=
EXTT6=
EXTT7=
EXTT8=
EXTT9=
PLAYORDER=
